<svg width="53" height="28" viewBox="0 0 53 28" fill="none" xmlns="http://www.w3.org/2000/svg">
<path d="M40.9536 24.0765H13.249C7.92493 24.0765 3.61266 19.6828 3.61266 14.2583C3.61266 8.83376 7.92493 4.44012 13.249 4.44012H43.3627C46.6872 4.44012 49.3854 7.18921 49.3854 10.5765C49.3854 13.9638 46.6872 16.7128 43.3627 16.7128H18.0672C16.7422 16.7128 15.6581 15.6083 15.6581 14.2583C15.6581 12.9083 16.7422 11.8038 18.0672 11.8038H40.9536V8.12194H18.0672C14.7427 8.12194 12.0445 10.871 12.0445 14.2583C12.0445 17.6456 14.7427 20.3947 18.0672 20.3947H43.3627C48.6868 20.3947 52.999 16.001 52.999 10.5765C52.999 5.15194 48.6868 0.758301 43.3627 0.758301H13.249C5.92539 0.758301 -0.000976562 6.79648 -0.000976562 14.2583C-0.000976562 21.7201 5.92539 27.7583 13.249 27.7583H40.9536V24.0765Z" fill="#0099CC"/>
</svg>
