<svg width="45" height="46" viewBox="0 0 45 46" fill="none" xmlns="http://www.w3.org/2000/svg">
<path d="M22.4765 0.758301C10.0565 0.758301 -0.000976562 10.8383 -0.000976562 23.2583C-0.000976562 35.6783 10.0565 45.7583 22.4765 45.7583C34.919 45.7583 44.999 35.6783 44.999 23.2583C44.999 10.8383 34.919 0.758301 22.4765 0.758301ZM22.499 41.2583C12.554 41.2583 4.49902 33.2033 4.49902 23.2583C4.49902 13.3133 12.554 5.2583 22.499 5.2583C32.444 5.2583 40.499 13.3133 40.499 23.2583C40.499 33.2033 32.444 41.2583 22.499 41.2583ZM30.374 21.0083C32.2415 21.0083 33.749 19.5008 33.749 17.6333C33.749 15.7658 32.2415 14.2583 30.374 14.2583C28.5065 14.2583 26.999 15.7658 26.999 17.6333C26.999 19.5008 28.5065 21.0083 30.374 21.0083ZM14.624 21.0083C16.4915 21.0083 17.999 19.5008 17.999 17.6333C17.999 15.7658 16.4915 14.2583 14.624 14.2583C12.7565 14.2583 11.249 15.7658 11.249 17.6333C11.249 19.5008 12.7565 21.0083 14.624 21.0083ZM22.499 35.6333C27.7415 35.6333 32.1965 32.3483 33.9965 27.7583H11.0015C12.8015 32.3483 17.2565 35.6333 22.499 35.6333Z" fill="#0099CC"/>
</svg>
